<svg
  xmlns="http://www.w3.org/2000/svg"
  viewBox="0 0 512 512"
  fill="currentColor"
>
  <path d="M105 209c2.926 1.375 5.444 2.986 8.063 4.875 9.425 6.362 19.315 8.281 30.53 8.256l2.582.007q4.273.007 8.545.004l6.137.01q6.605.012 13.21.017 10.46.01 20.92.041l7.171.019 3.628.01c16.23.042 32.46.075 48.69.087q16.43.011 32.86.07c5.79.019 11.58.031 17.37.026q8.182-.005 16.363.037 2.987.011 5.975 0c22.357-.073 41.04 5.109 57.956 20.541 13.313 13.424 21.102 30.3 21.266 49.18A483 483 90 0 1406 306l-1.565-1.216c-3.76-2.878-7.362-5.55-11.685-7.534l-2.453-1.172c-11.205-3.664-22.726-3.362-34.366-3.333l-5.71-.011q-6.12-.011-12.238-.008c-6.466.002-12.933-.012-19.4-.03q-27.57-.068-55.144-.077-15.252-.006-30.503-.055a3977 3977 90 0 0-19.233-.012c-4.01.003-8.021-.011-12.032-.03q-2.76-.008-5.521.005c-16.584.074-32.11-2.147-47.15-9.527l-2.824-1.371c-18.671-9.609-32.165-25.017-38.957-44.918-2.464-9.093-2.349-18.366-2.219-27.711M105 251h2c1.086 1.582 2.092 3.22 3.063 4.875 3.73 6.016 7.981 11.085 12.937 16.125l2.082 2.121c14.724 14.014 35.528 21.209 55.29 23.957l3.774.528L187 299q.141 20.055.207 40.11.03 9.313.095 18.627.063 8.996.078 17.992.01 3.424.043 6.848c.03 3.21.033 6.418.031 9.627l.044 2.827c-.07 11.248-4.449 21.444-12.088 29.684-8.674 8.021-19.95 11.89-31.672 11.598-12.172-1.39-22.432-6.658-30.172-16.122-8.323-11.645-8.87-23.915-8.793-37.842v-4.32c-.002-3.876.01-7.75.024-11.626.013-4.063.014-8.125.016-12.188q.011-11.516.043-23.033c.022-8.747.033-17.495.043-26.242q.032-26.97.101-53.94M389.438 82.313c8.12 6.201 14.53 14.442 16.562 24.687.09 2.108.122 4.218.12 6.327l.004 3.944-.01 4.32v4.553q-.001 6.18-.013 12.359c-.006 4.305-.006 8.61-.008 12.916q-.004 12.229-.021 24.458-.016 13.922-.022 27.845-.016 28.639-.05 57.278c-2.411-2.985-4.655-5.934-6.687-9.187-12.237-18.401-30.28-29.588-51.69-34.34-2.524-.455-4.927-.674-7.486-.79l-2.686-.126-2.764-.12-2.822-.13q-3.432-.159-6.865-.307-.142-21.033-.207-42.066c-.021-6.511-.05-13.023-.095-19.534a3567 3567 90 0 1-.078-18.869q-.01-3.591-.043-7.182c-.03-3.365-.033-6.73-.031-10.094l-.044-2.97c.066-11.104 3.821-20.26 11.498-28.285 14.99-14.071 36.14-16.22 53.438-4.687M168.875 81.75C175.79 86.8 180.812 93.053 184 101l1.037 2.46c1.304 4.793 1.226 9.283 1.19 14.227v3.224c0 3.507-.016 7.013-.032 10.519l-.008 7.305c-.008 6.402-.028 12.804-.05 19.205-.02 6.536-.03 13.071-.04 19.607Q186.066 196.774 186 216q-10.38.075-20.758.11-3.525.015-7.05.04c-3.393.025-6.787.037-10.18.045l-3.142.032c-12.087.001-22.175-1.597-31.62-9.54-5.346-6.385-8.006-11.178-7.881-19.59l-.022-2.581c-.017-2.794.003-5.586.024-8.38q0-2.936-.007-5.872-.003-6.144.04-12.288c.033-5.225.027-10.45.008-15.675-.01-4.041-.001-8.083.014-12.125q.008-2.888-.002-5.775c-.03-14.613.988-26.332 11.576-37.401 14.654-13.755 34.65-15.99 51.875-5.25M325 299a5264 5264 90 0 1 20.703-.11q3.514-.015 7.03-.04c3.386-.025 6.771-.037 10.158-.045l3.126-.032c12.428-.001 23.168 1.32 32.796 9.664 5.372 6.294 7.337 10.828 7.332 18.997l.01 2.287q.013 3.75.013 7.502l.01 5.229q.009 5.488.007 10.977c0 4.668.014 9.336.031 14.004q.015 5.406.013 10.813 0 2.58.013 5.158c.064 15.55-.745 29.937-11.93 41.971-8.904 8.156-19.554 12.251-31.578 11.934-11.911-1.345-21.984-6.427-29.609-15.684-4.78-6.595-8.255-13.851-8.245-22.092l-.004-2.694.01-2.932v-3.105c0-3.387.009-6.774.016-10.161l.005-7.046q.006-9.271.024-18.544.014-9.461.02-18.922.016-18.564.049-37.129"/>
</svg>
