<svg viewBox="0 0 512 512" xmlns="http://www.w3.org/2000/svg" fill="white">
  <path d="M 105 209 c 2.926 1.375 5.444 2.986 8.063 4.875 c 9.425 6.362 19.315 8.281 30.53 8.256 l 2.582 0.007 q 4.273 0.007 8.545 0.004 l 6.137 0.01 q 6.605 0.012 13.21 0.017 q 10.46 0.01 20.92 0.041 l 7.171 0.019 l 3.628 0.01 c 16.23 0.042 32.46 0.075 48.69 0.087 q 16.43 0.011 32.86 0.07 c 5.79 0.019 11.58 0.031 17.37 0.026 q 8.182 -0.005 16.363 0.037 q 2.987 0.011 5.975 0 c 22.357 -0.073 41.04 5.109 57.956 20.541 c 13.313 13.424 21.102 30.3 21.266 49.18 A 483 483 90 0 1 406 306 l -1.565 -1.216 c -3.76 -2.878 -7.362 -5.55 -11.685 -7.534 l -2.453 -1.172 c -11.205 -3.664 -22.726 -3.362 -34.366 -3.333 l -5.71 -0.011 q -6.12 -0.011 -12.238 -0.008 c -6.466 0.002 -12.933 -0.012 -19.4 -0.03 q -27.57 -0.068 -55.144 -0.077 q -15.252 -0.006 -30.503 -0.055 a 3977 3977 90 0 0 -19.233 -0.012 c -4.01 0.003 -8.021 -0.011 -12.032 -0.03 q -2.76 -0.008 -5.521 0.005 c -16.584 0.074 -32.11 -2.147 -47.15 -9.527 l -2.824 -1.371 c -18.671 -9.609 -32.165 -25.017 -38.957 -44.918 c -2.464 -9.093 -2.349 -18.366 -2.219 -27.711 M 105 251 h 2 c 1.086 1.582 2.092 3.22 3.063 4.875 c 3.73 6.016 7.981 11.085 12.937 16.125 l 2.082 2.121 c 14.724 14.014 35.528 21.209 55.29 23.957 l 3.774 0.528 L 187 299 q 0.141 20.055 0.207 40.11 q 0.03 9.313 0.095 18.627 q 0.063 8.996 0.078 17.992 q 0.01 3.424 0.043 6.848 c 0.03 3.21 0.033 6.418 0.031 9.627 l 0.044 2.827 c -0.07 11.248 -4.449 21.444 -12.088 29.684 c -8.674 8.021 -19.95 11.89 -31.672 11.598 c -12.172 -1.39 -22.432 -6.658 -30.172 -16.122 c -8.323 -11.645 -8.87 -23.915 -8.793 -37.842 v -4.32 c -0.002 -3.876 0.01 -7.75 0.024 -11.626 c 0.013 -4.063 0.014 -8.125 0.016 -12.188 q 0.011 -11.516 0.043 -23.033 c 0.022 -8.747 0.033 -17.495 0.043 -26.242 q 0.032 -26.97 0.101 -53.94 M 389.438 82.313 c 8.12 6.201 14.53 14.442 16.562 24.687 c 0.09 2.108 0.122 4.218 0.12 6.327 l 0.004 3.944 l -0.01 4.32 v 4.553 q -0.001 6.18 -0.013 12.359 c -0.006 4.305 -0.006 8.61 -0.008 12.916 q -0.004 12.229 -0.021 24.458 q -0.016 13.922 -0.022 27.845 q -0.016 28.639 -0.05 57.278 c -2.411 -2.985 -4.655 -5.934 -6.687 -9.187 c -12.237 -18.401 -30.28 -29.588 -51.69 -34.34 c -2.524 -0.455 -4.927 -0.674 -7.486 -0.79 l -2.686 -0.126 l -2.764 -0.12 l -2.822 -0.13 q -3.432 -0.159 -6.865 -0.307 q -0.142 -21.033 -0.207 -42.066 c -0.021 -6.511 -0.05 -13.023 -0.095 -19.534 a 3567 3567 90 0 1 -0.078 -18.869 q -0.01 -3.591 -0.043 -7.182 c -0.03 -3.365 -0.033 -6.73 -0.031 -10.094 l -0.044 -2.97 c 0.066 -11.104 3.821 -20.26 11.498 -28.285 c 14.99 -14.071 36.14 -16.22 53.438 -4.687 M 168.875 81.75 C 175.79 86.8 180.812 93.053 184 101 l 1.037 2.46 c 1.304 4.793 1.226 9.283 1.19 14.227 v 3.224 c 0 3.507 -0.016 7.013 -0.032 10.519 l -0.008 7.305 c -0.008 6.402 -0.028 12.804 -0.05 19.205 c -0.02 6.536 -0.03 13.071 -0.04 19.607 Q 186.066 196.774 186 216 q -10.38 0.075 -20.758 0.11 q -3.525 0.015 -7.05 0.04 c -3.393 0.025 -6.787 0.037 -10.18 0.045 l -3.142 0.032 c -12.087 0.001 -22.175 -1.597 -31.62 -9.54 c -5.346 -6.385 -8.006 -11.178 -7.881 -19.59 l -0.022 -2.581 c -0.017 -2.794 0.003 -5.586 0.024 -8.38 q 0 -2.936 -0.007 -5.872 q -0.003 -6.144 0.04 -12.288 c 0.033 -5.225 0.027 -10.45 0.008 -15.675 c -0.01 -4.041 -0.001 -8.083 0.014 -12.125 q 0.008 -2.888 -0.002 -5.775 c -0.03 -14.613 0.988 -26.332 11.576 -37.401 c 14.654 -13.755 34.65 -15.99 51.875 -5.25 M 325 299 a 5264 5264 90 0 1 20.703 -0.11 q 3.514 -0.015 7.03 -0.04 c 3.386 -0.025 6.771 -0.037 10.158 -0.045 l 3.126 -0.032 c 12.428 -0.001 23.168 1.32 32.796 9.664 c 5.372 6.294 7.337 10.828 7.332 18.997 l 0.01 2.287 q 0.013 3.75 0.013 7.502 l 0.01 5.229 q 0.009 5.488 0.007 10.977 c 0 4.668 0.014 9.336 0.031 14.004 q 0.015 5.406 0.013 10.813 q 0 2.58 0.013 5.158 c 0.064 15.55 -0.745 29.937 -11.93 41.971 c -8.904 8.156 -19.554 12.251 -31.578 11.934 c -11.911 -1.345 -21.984 -6.427 -29.609 -15.684 c -4.78 -6.595 -8.255 -13.851 -8.245 -22.092 l -0.004 -2.694 l 0.01 -2.932 v -3.105 c 0 -3.387 0.009 -6.774 0.016 -10.161 l 0.005 -7.046 q 0.006 -9.271 0.024 -18.544 q 0.014 -9.461 0.02 -18.922 q 0.016 -18.564 0.049 -37.129"/>
</svg>
